<?xml version="1.0" encoding="UTF-8"?>
<svg version="1.1" xmlns="http://www.w3.org/2000/svg" width="340" height="340">
<path d="M0 0 C1.71201496 -0.01059839 1.71201496 -0.01059839 3.45861608 -0.02141088 C5.34787935 -0.01778826 5.34787935 -0.01778826 7.27530956 -0.01409245 C8.62243532 -0.01854293 9.96955847 -0.02385634 11.31667775 -0.02996117 C15.02665074 -0.04417453 18.7365401 -0.04580383 22.44653642 -0.04536426 C26.44460853 -0.04700954 30.44264588 -0.06007063 34.44069958 -0.07155704 C43.18651312 -0.09442863 51.93230244 -0.10232995 60.67814183 -0.10738349 C66.13718258 -0.11063797 71.59621627 -0.11715893 77.05525303 -0.12438488 C92.1644245 -0.14395353 107.27358939 -0.16035622 122.38277435 -0.16326141 C123.3500685 -0.16344898 124.31736264 -0.16363655 125.31396873 -0.16382981 C127.27498352 -0.16419606 129.23599832 -0.16455976 131.19701312 -0.16492092 C132.17048812 -0.16510373 133.14396312 -0.16528654 134.14693737 -0.16547489 C135.60892837 -0.16574572 135.60892837 -0.16574572 137.10045453 -0.16602201 C152.89722898 -0.16956445 168.69386718 -0.19659 184.49059436 -0.23397278 C200.70188353 -0.27203018 216.91310505 -0.2914187 233.1244399 -0.29172093 C242.22935632 -0.29230607 251.33411021 -0.30083482 260.43898487 -0.32971859 C268.19131754 -0.35419818 275.94342841 -0.36153861 283.69578926 -0.34647106 C287.65206131 -0.33928805 291.6078951 -0.3402188 295.56411839 -0.36288166 C299.18585199 -0.38342987 302.80680925 -0.38091137 306.42853405 -0.36000682 C308.3595924 -0.35484405 310.29066803 -0.3743235 312.2216261 -0.39466852 C321.59470326 -0.30340935 321.59470326 -0.30340935 325.29795647 2.67348289 C328.42094503 6.27519979 328.66645939 7.89335678 328.67495728 12.56504345 C328.67941512 13.69742892 328.68387296 14.82981438 328.68846589 15.99651456 C328.68818935 17.87847425 328.68818935 17.87847425 328.68790722 19.79845333 C328.69120505 21.13646449 328.69493044 22.47447466 328.6990487 23.81248355 C328.70908609 27.50189416 328.71278828 31.1912885 328.71543801 34.88071084 C328.71933592 38.85493143 328.72891461 42.82913906 328.73765087 46.8033514 C328.75742988 56.40737262 328.76748334 66.01139492 328.77637866 75.61543143 C328.78075924 80.13540092 328.78612664 84.65536923 328.79136753 89.17533779 C328.8083813 104.19611143 328.82287617 119.21688433 328.83011627 134.23766613 C328.83202624 138.13722135 328.83394657 142.03677656 328.83590221 145.93633175 C328.83638595 146.90557668 328.83686969 147.87482162 328.83736809 148.87343761 C328.84567098 164.57971954 328.8710116 180.28592537 328.90348289 195.99217406 C328.93653101 212.10850475 328.954563 228.22479673 328.95776051 244.34116149 C328.9599277 253.3935348 328.96870684 262.44579714 328.99422169 271.49813747 C329.01589802 279.20654944 329.02399428 286.9148235 329.01425491 294.62326249 C329.00970124 298.55719517 329.0116579 302.49084311 329.03101635 306.42473698 C329.04858537 310.0260571 329.04770186 313.62688348 329.03211906 317.22820839 C329.02860308 319.14837315 329.04481601 321.06854272 329.06172353 322.98863626 C328.98175638 333.63878363 328.98175638 333.63878363 324.5407362 338.26006222 C321.31139877 340.29296098 318.78471851 340.51119257 315.00248337 340.51453781 C313.30223207 340.5232861 313.30223207 340.5232861 311.56763226 340.53221112 C310.32202697 340.5284318 309.07642169 340.52465248 307.79307079 340.52075863 C306.45674454 340.5237786 305.12042002 340.5276673 303.78409857 340.5323512 C300.10864942 340.54265992 296.4332975 340.5404421 292.75784028 340.5361706 C288.79525862 340.53370859 284.8327007 340.54271099 280.87012768 340.55020809 C273.10584735 340.56297163 265.34160158 340.56474674 257.57731254 340.56240783 C251.26785431 340.5606264 244.95840659 340.56237054 238.64894962 340.56663227 C237.30310242 340.56752505 237.30310242 340.56752505 235.93006639 340.56843587 C234.10747318 340.5696476 232.28487997 340.57086173 230.46228676 340.57207825 C213.36168205 340.58296011 196.26109705 340.58078821 179.16049122 340.5746934 C163.50863795 340.56952334 147.85684691 340.58078091 132.20500595 340.59979162 C116.141723 340.61915283 100.07846951 340.62742907 84.01517481 340.62366837 C74.99363053 340.62175376 65.97213922 340.62426919 56.95060444 340.63838291 C49.27076746 340.6502758 41.59101605 340.65172516 33.91117794 340.63959274 C29.99158432 340.63368937 26.07214738 340.63264467 22.15256405 340.64459515 C18.56562488 340.65540449 14.97897416 340.65241011 11.39204877 340.63833346 C9.47722133 340.6344107 7.56238132 340.64527393 5.64758354 340.65663034 C4.51147493 340.64942379 3.37536632 340.64221725 2.20483017 340.63479233 C0.73457786 340.63487485 0.73457786 340.63487485 -0.76537651 340.63495904 C-4.872057 340.0634498 -7.38759808 338.36198194 -10.24816859 335.42065519 C-11.78460882 332.67964695 -11.83523774 330.82761043 -11.83678722 327.69057465 C-11.84461047 326.55010699 -11.85243371 325.40963933 -11.86049402 324.23461205 C-11.85380185 322.98122487 -11.84710969 321.72783769 -11.84021473 320.43646908 C-11.84367068 319.09189153 -11.84843483 317.74731682 -11.85439646 316.40274805 C-11.86694502 312.70444859 -11.86071867 309.00638072 -11.85143781 305.30808032 C-11.84466331 301.3209532 -11.85512063 297.33386653 -11.86337757 293.3467474 C-11.8767346 285.53432111 -11.87382831 277.72198116 -11.86513965 269.90955145 C-11.85837076 263.56099762 -11.85744294 257.21246803 -11.8607111 250.86391163 C-11.8611708 249.96112944 -11.8616305 249.05834725 -11.86210413 248.12820802 C-11.86306328 246.29434081 -11.86403592 244.4604736 -11.8650219 242.6266064 C-11.87358169 225.42011905 -11.86373269 208.21367961 -11.8476208 191.00720011 C-11.83421936 176.23802923 -11.83654314 161.46892909 -11.85037708 146.69975948 C-11.86642642 129.55735005 -11.87275526 112.41498264 -11.86354029 95.27256674 C-11.86258463 93.44505402 -11.86164151 91.6175413 -11.8607111 89.79002857 C-11.86024827 88.89081214 -11.85978544 87.9915957 -11.85930859 87.06513028 C-11.8567166 80.72351738 -11.86109427 74.38193109 -11.86814976 68.0403223 C-11.87655788 60.31290235 -11.87429922 52.58557384 -11.85830753 44.85816438 C-11.85041517 40.91427201 -11.84734952 36.97053218 -11.85725498 33.02664089 C-11.86618268 29.41749041 -11.86130108 25.80863411 -11.84532233 22.19951039 C-11.84037426 20.27275857 -11.85018835 18.3459864 -11.86049402 16.41925579 C-11.85267078 15.27618039 -11.84484753 14.13310498 -11.83678722 12.95539093 C-11.83630017 11.9691472 -11.83581311 10.98290347 -11.83531129 9.96677357 C-11.38612244 6.73360599 -10.38128453 4.881093 -8.4592638 2.26006222 C-5.08163956 0.00831272 -3.95432482 0.00780073 0 0 Z M62.2282362 98.63506222 C49.34857229 113.90588736 43.40698125 130.4090438 44.5407362 150.26006222 C46.24026061 160.25647743 51.20673911 167.93758794 58.8922987 174.43584347 C72.84411917 184.04572571 89.38368026 183.54490747 105.5407362 183.26006222 C104.31890756 187.26347627 103.0919138 191.26526092 101.86031628 195.26567745 C101.44291173 196.62397537 101.0268689 197.98269258 100.6122694 199.34184933 C100.01266478 201.30661873 99.40801658 203.26977803 98.80245495 205.23271847 C98.44111462 206.41100216 98.07977428 207.58928585 97.70748425 208.80327511 C96.85969556 211.31506419 95.96493998 213.6462482 94.89693737 216.05889034 C93.38460741 219.02545902 93.38460741 219.02545902 93.5797987 221.50615597 C96.60393663 227.02582236 104.72409585 229.52985039 110.4157362 231.19756222 C113.78547366 232.09648635 116.27619974 232.69004079 119.5407362 231.26006222 C123.97482102 225.87387329 125.61680054 218.15899763 127.5407362 211.57256222 C127.81337292 210.67779171 128.08600964 209.7830212 128.36690807 208.86113644 C129.79997603 203.9000495 130.68855847 199.33684686 130.9079237 194.17021847 C131.73363552 182.1243123 131.73363552 182.1243123 135.5407362 177.26006222 C145.15613869 171.30139883 156.60236416 168.72766626 167.5407362 166.26006222 C167.40361217 166.85101681 167.26648815 167.4419714 167.12520885 168.0508337 C166.19441314 172.13441866 165.31349024 176.14614474 164.9157362 180.32256222 C164.7301112 182.27162472 164.7301112 182.27162472 164.5407362 184.26006222 C169.98743457 182.60660021 174.60880725 180.10683438 179.5407362 177.30693722 C184.371515 175.6211967 187.26400102 177.64710229 191.6813612 179.76787472 C192.70745495 180.30154659 193.7335487 180.83521847 194.7907362 181.38506222 C198.48705869 183.51540051 198.48705869 183.51540051 202.5407362 184.26006222 C202.39553155 182.63500592 202.24952751 181.01002105 202.1032362 179.38506222 C202.0310487 178.37314816 201.9588612 177.36123409 201.8844862 176.31865597 C201.64759765 173.32080942 201.64759765 173.32080942 200.7594862 170.79521847 C199.91977048 167.79123543 199.7217825 166.3117423 200.5407362 163.26006222 C204.13970594 158.43855176 208.72396592 154.44266162 213.23971081 150.50005245 C213.66904919 150.09085567 214.09838757 149.6816589 214.5407362 149.26006222 C214.5407362 148.93006222 214.5407362 148.60006222 214.5407362 148.26006222 C213.9517152 148.22791622 213.36269421 148.19577023 212.75582409 148.16265011 C196.28339774 146.97348582 196.28339774 146.97348582 191.66280651 142.40215206 C188.42088253 137.72666054 186.38308211 132.61748715 184.5407362 127.26006222 C183.8807362 127.26006222 183.2207362 127.26006222 182.5407362 127.26006222 C181.20254122 129.88268542 179.8700211 132.50792821 178.5407362 135.13506222 C177.96839245 136.254613 177.96839245 136.254613 177.3844862 137.39678097 C176.84307995 138.4699255 176.84307995 138.4699255 176.2907362 139.56474972 C175.95557995 140.22458858 175.6204237 140.88442745 175.2751112 141.56426144 C174.40827207 143.25794772 174.40827207 143.25794772 174.5407362 145.26006222 C173.37155651 145.39283566 172.20237682 145.52560909 170.99776745 145.66240597 C169.44957781 145.84068235 167.90140141 146.01907383 166.3532362 146.19756222 C165.58431042 146.28457394 164.81538464 146.37158566 164.02315807 146.46123409 C160.15300792 146.90970643 156.34886996 147.41296232 152.5407362 148.26006222 C152.91585339 148.69576534 153.29097057 149.13146847 153.67745495 149.58037472 C156.99933396 153.44613821 160.28716547 157.33663869 163.5407362 161.26006222 C161.6226112 161.56943722 161.6226112 161.56943722 159.6657362 161.88506222 C151.39949981 163.50964047 143.4847065 166.50822937 135.5407362 169.26006222 C135.83722057 168.17724972 136.13370495 167.09443722 136.4391737 165.97881222 C139.65077255 153.08710325 144.65227788 131.70372505 139.61495495 118.90849972 C135.69074827 113.46785919 128.76707892 111.07506147 122.5407362 109.26006222 C119.65313958 108.87057244 117.46229946 108.92931921 114.5407362 109.26006222 C113.34490232 110.22930527 113.34490232 110.22930527 113.47481823 111.99639034 C113.49914928 112.75371456 113.52348034 113.51103878 113.5485487 114.29131222 C113.97962229 133.89507184 111.9240045 153.14155154 107.5407362 172.26006222 C95.69422655 172.77595861 84.06027395 172.05680659 74.5407362 164.26006222 C69.3417317 159.45995832 67.52982183 154.03416396 67.2282362 147.07256222 C67.72656871 129.77749255 77.02039161 115.28264679 89.1657362 103.63506222 C110.40179662 85.20007725 140.05084664 78.58040169 167.5407362 80.26006222 C189.06735311 82.15433285 207.02180202 90.05202488 222.5407362 105.26006222 C223.24069714 105.92392941 223.94065807 106.58779659 224.66182995 107.27178097 C238.13088899 121.05590572 242.8532362 139.92106077 242.8532362 158.59453487 C242.58945866 176.87611653 235.97035528 194.65971749 223.5407362 208.26006222 C222.76343151 209.12889034 221.98612682 209.99771847 221.18526745 210.89287472 C214.12423618 218.38153122 206.34100781 223.97079103 197.5407362 229.26006222 C196.91521862 229.64404171 196.28970104 230.0280212 195.64522839 230.42363644 C178.63109469 240.71196638 158.22708005 247.57773799 138.5407362 250.26006222 C137.88645641 250.34997433 137.23217663 250.43988644 136.55807018 250.53252316 C117.26579858 252.95510312 96.40501578 253.06374133 79.5407362 242.26006222 C75.38172137 238.75089346 73.4350759 234.2451667 71.5407362 229.26006222 C68.27612647 231.06418865 66.65143824 232.09400915 64.5407362 235.26006222 C63.37063509 247.54612388 68.6671462 258.66516306 76.06026745 268.22490597 C84.57581571 277.69353262 97.62069247 281.47247393 109.95284557 282.56133175 C113.46731204 282.69700417 116.9613195 282.72760503 120.4782362 282.69756222 C121.73877819 282.68998898 122.99932018 282.68241573 124.29806042 282.674613 C168.99195745 281.89924718 214.3667398 260.24951879 245.55831432 228.65727901 C265.57104269 207.7294726 274.1141482 182.46178384 273.7516737 153.68974972 C273.10155697 130.72698479 263.6455194 110.29592978 248.5407362 93.26006222 C247.93874401 92.57428097 247.33675182 91.88849972 246.71651745 91.18193722 C230.57316142 73.95301929 208.37985361 63.89076521 185.5407362 59.26006222 C184.37800182 59.01642941 183.21526745 58.77279659 182.0172987 58.52178097 C138.97718788 51.00765236 92.03134688 66.8489657 62.2282362 98.63506222 Z " fill="#000000" transform="translate(11.459263801574707,-0.26006221771240234)"/>
</svg>
